<svg xmlns="http://www.w3.org/2000/svg" xmlns:xlink="http://www.w3.org/1999/xlink" width="2172" viewBox="0 0 1628.88 543.000006" height="724" preserveAspectRatio="xMidYMid meet"><defs><clipPath id="aa63c9fa1a"><path d="M 1.4375 0 L 1627.324219 0 L 1627.324219 542 L 1.4375 542 Z M 1.4375 0" clip-rule="nonzero"/></clipPath><clipPath id="6752adddd5"><path d="M 86 118 L 1503.738281 118 L 1503.738281 422 L 86 422 Z M 86 118" clip-rule="nonzero"/></clipPath><mask id="69996fe20b"><g><g transform="matrix(1.578941, 0, 0, 1.578699, 85.850178, 117.526138)"/></g></mask></defs><g clip-path="url(#aa63c9fa1a)"><path fill="#ffffff" d="M 1.4375 0 L 1627.441406 0 L 1627.441406 542 L 1.4375 542 Z M 1.4375 0" fill-opacity="1" fill-rule="nonzero"/><path fill="#ffffff" d="M 1.4375 0 L 1627.441406 0 L 1627.441406 542 L 1.4375 542 Z M 1.4375 0" fill-opacity="1" fill-rule="nonzero"/><path fill="#ff0000" d="M 1692.9375 392.230469 C 1683.492188 407.75 1667.429688 416.902344 1651.566406 425.761719 C 1658.277344 435.457031 1658.027344 448.472656 1655.039062 459.882812 C 1652.050781 471.289062 1646.617188 481.957031 1643.582031 493.363281 C 1640.546875 504.773438 1641.328125 519.855469 1647.941406 529.585938 C 1638.835938 529.976562 1631.195312 537.277344 1627.472656 545.648438 C 1623.800781 554.023438 1623.210938 563.316406 1622.429688 572.425781 C 1621.652344 581.53125 1620.421875 590.929688 1615.675781 598.714844 L 1615.875 598.761719 C 1628.949219 603.945312 1642.554688 609.484375 1651.816406 620.101562 C 1654.507812 623.234375 1656.8125 626.765625 1658.226562 630.578125 C 1661.464844 639.390625 1660.140625 649.382812 1656.515625 657.992188 C 1652.890625 666.660156 1647.160156 674.242188 1641.539062 681.730469 C 1648.886719 689.027344 1660.921875 697.25 1664.25 707.085938 C 1666.355469 713.359375 1666.554688 720.113281 1667.488281 726.667969 C 1670.722656 749.875 1683.054688 771.714844 1682.273438 795.160156 L 1682.273438 795.207031 C 1682.226562 797.601562 1680.46875 799.609375 1678.414062 800.839844 C 1676.359375 802.066406 1674.054688 802.753906 1671.953125 803.828125 C 1664.652344 807.546875 1660.792969 815.828125 1659.269531 823.90625 C 1657.742188 831.984375 1657.992188 840.308594 1656.28125 848.328125 C 1652.808594 864.675781 1640.277344 877.949219 1629.398438 890.683594 C 1635.328125 898.121094 1641.339844 905.65625 1644.71875 914.527344 C 1648.09375 923.386719 1648.484375 933.910156 1643.441406 941.9375 C 1637.277344 951.777344 1622.441406 956.476562 1611.222656 959.417969 C 1619.5 967.449219 1628.265625 976.308594 1629.917969 987.71875 C 1631.039062 995.652344 1628.59375 1003.71875 1629.625 1011.65625 C 1630.507812 1018.507812 1633.980469 1024.824219 1638.433594 1030.070312 C 1642.886719 1035.3125 1648.320312 1039.71875 1653.65625 1044.078125 C 1643.960938 1058.617188 1644.941406 1079.425781 1649.5 1096.316406 C 1654.058594 1113.203125 1662.125 1128.96875 1666.589844 1145.90625 C 1672.316406 1167.496094 1671.929688 1190.65625 1665.5625 1212.046875 C 1636.53125 1218.941406 1602.894531 1219.003906 1574.644531 1209.351562 C 1561.675781 1204.898438 1549.242188 1198.78125 1535.824219 1195.890625 C 1522.40625 1192.996094 1506.25 1193.445312 1495.335938 1201.710938 C 1490.339844 1193.492188 1482.652344 1186.925781 1473.746094 1183.359375 C 1463.414062 1179.199219 1451.957031 1179.046875 1440.949219 1177.289062 C 1429.941406 1175.527344 1417.695312 1170.78125 1411.484375 1161.519531 C 1408.835938 1173.117188 1403.40625 1184.089844 1395.714844 1193.195312 C 1392.976562 1196.433594 1389.644531 1199.609375 1385.441406 1200.246094 C 1382.265625 1200.683594 1379.121094 1199.609375 1376.132812 1198.441406 C 1364.878906 1194.035156 1353.765625 1187.277344 1343.867188 1180.324219 C 1338 1180.027344 1332.707031 1183.84375 1328.644531 1188.058594 C 1324.582031 1192.261719 1321.050781 1197.210938 1316.113281 1200.339844 C 1303.429688 1208.324219 1286.195312 1202.101562 1272.25 1207.535156 C 1260.792969 1211.988281 1251.097656 1222.804688 1244.835938 1233.386719 C 1240.820312 1229.960938 1235.4375 1228.78125 1230.203125 1228.34375 C 1224.960938 1227.90625 1219.679688 1228.097656 1214.542969 1226.925781 C 1206.855469 1225.214844 1200.097656 1220.65625 1192.609375 1218.257812 C 1181.992188 1214.832031 1170.335938 1215.859375 1159.765625 1212.386719 C 1147.765625 1208.46875 1138.375 1199.171875 1129.460938 1190.207031 C 1118.347656 1198.535156 1113.207031 1200.390625 1100.277344 1205.527344 C 1095.089844 1207.582031 1089.457031 1209.386719 1084.023438 1208.078125 C 1079.523438 1206.957031 1075.804688 1203.8125 1072.519531 1200.542969 C 1062.871094 1190.953125 1055.089844 1178.609375 1049.703125 1166.078125 C 1035.601562 1173.320312 1018.074219 1167.945312 1002.945312 1172.742188 C 992.375 1176.117188 982.925781 1185.082031 979.253906 1195.605469 C 971.613281 1188.304688 959.421875 1188.257812 949.335938 1191.402344 C 939.25 1194.53125 930.144531 1200.257812 920.058594 1203.402344 C 906.394531 1207.605469 891.21875 1206.730469 878.15625 1200.910156 L 878.203125 1198.074219 C 873.253906 1216.875 859.789062 1233.269531 842.324219 1241.75 C 837.375 1244.148438 831.894531 1245.953125 826.507812 1245.125 C 821.960938 1244.394531 817.886719 1241.890625 814.167969 1239.199219 C 800.5 1229.453125 788.855469 1216.875 780.140625 1202.480469 C 764.621094 1205.125 748.808594 1207.769531 734.363281 1201.5 C 726.96875 1198.320312 720.554688 1192.984375 713.019531 1190.183594 C 701.175781 1185.828125 686.980469 1188.660156 677.671875 1197.1875 C 675.804688 1188.128906 668.023438 1180.59375 659.601562 1176.828125 C 651.132812 1173.058594 641.78125 1172.03125 632.578125 1171.050781 C 623.378906 1170.070312 614.023438 1168.996094 605.605469 1165.121094 C 604.140625 1178.585938 598.753906 1188.921875 589.648438 1198.949219 C 585.976562 1203.011719 581.523438 1206.730469 576.136719 1207.570312 C 572.664062 1208.113281 569.085938 1207.367188 565.707031 1206.449219 C 553.367188 1203.117188 541.675781 1197.542969 531.339844 1190.042969 C 514.496094 1195.816406 504.507812 1213.441406 487.132812 1217.3125 C 478.960938 1219.121094 470.242188 1217.515625 462.070312 1219.320312 C 455.65625 1220.738281 449.929688 1224.117188 443.609375 1225.980469 C 432.496094 1229.265625 419.871094 1227.742188 409.925781 1233.671875 C 404.683594 1221.777344 391.917969 1212.082031 379.433594 1208.503906 C 372.085938 1206.398438 364.304688 1206.246094 356.816406 1204.640625 C 342.523438 1201.605469 326.898438 1190.585938 318.242188 1178.847656 C 311.828125 1184.773438 310.648438 1185.898438 303.066406 1190.300781 C 295.472656 1194.707031 286.566406 1197.304688 277.957031 1196.03125 C 270.078125 1194.863281 262.875 1190.351562 257.832031 1184.230469 C 252.742188 1178.113281 248.632812 1167.933594 247.605469 1160.042969 C 240.988281 1170.613281 228.847656 1177.132812 216.472656 1178.398438 C 208.003906 1179.285156 199.382812 1177.914062 191.019531 1179.472656 C 179.316406 1181.679688 166.9375 1191.660156 162.035156 1202.480469 C 151.703125 1194.839844 137.800781 1193.859375 125.023438 1195.628906 C 104.507812 1198.464844 85.421875 1207.429688 65.4375 1212.765625 C 42.382812 1218.929688 10.164062 1219.085938 -8.046875 1212.082031 C -14.460938 1190.691406 -14.800781 1167.53125 -9.074219 1145.941406 C -4.574219 1129.054688 3.503906 1113.238281 8.015625 1096.351562 C 12.574219 1079.460938 13.601562 1058.652344 3.859375 1044.113281 C 9.242188 1039.753906 14.628906 1035.394531 19.082031 1030.105469 C 23.535156 1024.8125 27.019531 1018.554688 27.894531 1011.691406 C 28.921875 1003.753906 26.429688 995.6875 27.597656 987.753906 C 29.261719 976.34375 38.027344 967.484375 46.292969 959.453125 C 35.039062 956.5625 20.25 951.8125 14.074219 941.976562 C 9.03125 933.945312 9.421875 923.421875 12.800781 914.5625 C 16.175781 905.703125 22.199219 898.109375 28.117188 890.71875 C 17.25 877.984375 4.722656 864.769531 1.238281 848.363281 C -0.476562 840.332031 -0.179688 832.019531 -1.75 823.941406 C -3.273438 815.863281 -7.136719 807.59375 -14.4375 803.863281 C -16.539062 802.789062 -18.886719 802.101562 -20.894531 800.875 C -22.953125 799.644531 -24.710938 797.636719 -24.757812 795.242188 L -24.757812 795.195312 C -25.585938 771.796875 -13.253906 749.914062 -9.972656 726.703125 C -9.039062 720.148438 -8.847656 713.394531 -6.734375 707.121094 C -3.40625 697.285156 8.582031 689.113281 15.976562 681.765625 C 10.296875 674.277344 4.613281 666.683594 1 658.027344 C -2.613281 649.371094 -3.996094 639.378906 -0.710938 630.613281 C 0.707031 626.753906 3.007812 623.222656 5.699219 620.136719 C 14.902344 609.507812 28.566406 603.933594 41.640625 598.796875 L 41.839844 598.75 C 37.09375 590.917969 35.914062 581.566406 35.085938 572.460938 C 34.304688 563.351562 33.714844 554 30.042969 545.683594 C 26.371094 537.359375 18.726562 530.023438 9.574219 529.621094 C 16.1875 519.832031 16.96875 504.796875 13.933594 493.398438 C 10.898438 482.003906 5.464844 471.324219 2.476562 459.917969 C -0.511719 448.507812 -0.757812 435.492188 5.949219 425.796875 C -9.914062 416.9375 -25.976562 407.785156 -35.421875 392.265625 C -39 386.445312 -41.445312 379.488281 -40.21875 372.777344 C -39.285156 367.6875 -36.355469 363.1875 -33.167969 359.066406 C -27.984375 352.359375 -22.007812 346.289062 -15.34375 340.996094 C -10.894531 337.476562 -6.097656 334.195312 -2.566406 329.742188 C 0.953125 325.289062 3.066406 319.21875 1.152344 313.832031 C 0.125 304.867188 0.421875 294.097656 3.257812 285.488281 C 6.433594 275.839844 13.53125 267.820312 16.425781 258.074219 C 19.753906 246.960938 17.203125 233.839844 9.574219 225.125 C 14.914062 222.867188 20.441406 220.46875 24.265625 216.113281 C 27.691406 212.191406 29.40625 207.101562 30.726562 202.058594 C 34.449219 187.957031 35.722656 173.324219 37 158.832031 C 37.140625 157.414062 37.246094 155.84375 36.457031 154.628906 C 35.722656 153.398438 31.023438 152.183594 30.136719 153.304688 C 14.074219 149.441406 0.90625 135.480469 -2.023438 119.183594 C -4.964844 102.886719 2.582031 85.253906 16.332031 76.050781 C 4.332031 68.515625 -4.089844 55.289062 -8.390625 41.777344 C -12.6875 28.265625 -14.070312 14.023438 -16.21875 0.015625 C -18.367188 -13.992188 -21.511719 -28.1875 -28.796875 -40.328125 C -17.386719 -48.890625 -5.105469 -57.171875 -1.339844 -70.339844 C 1.449219 -79.929688 0.8125 -90.265625 3.113281 -100.007812 C 6.246094 -113.472656 15.113281 -125.460938 27.007812 -132.414062 C 21.136719 -139.855469 15.351562 -149.503906 12.421875 -158.503906 C 9.480469 -167.515625 9.433594 -177.839844 14.335938 -185.964844 C 20.5 -196.296875 34.257812 -201.578125 46.011719 -204.316406 L 46.496094 -204.316406 C 40.671875 -208.628906 40.90625 -208.332031 36.703125 -214.203125 C 31.613281 -221.347656 29.40625 -230.207031 28.082031 -238.921875 C 26.757812 -247.640625 26.167969 -256.496094 23.722656 -264.964844 C 23.925781 -270.988281 20.6875 -278.132812 15.644531 -281.417969 C 12.316406 -283.566406 7.957031 -284.9375 6.339844 -288.5625 C 5.3125 -290.914062 5.796875 -293.699219 7.117188 -295.863281 C 8.441406 -298.011719 10.839844 -300.019531 13.09375 -301.246094 C 12.363281 -325.386719 2.523438 -348.195312 -3.699219 -371.542969 C -11.390625 -400.183594 -13.738281 -430.195312 -10.597656 -459.660156 C 7.660156 -466.664062 42.527344 -464.953125 65.582031 -458.777344 C 85.550781 -453.4375 104.648438 -444.484375 125.164062 -441.636719 C 137.894531 -439.878906 151.796875 -440.859375 162.179688 -448.488281 C 167.078125 -437.621094 179.457031 -427.632812 191.160156 -425.480469 C 199.535156 -423.910156 208.144531 -425.28125 216.613281 -424.40625 C 229.050781 -423.132812 241.144531 -416.625 247.746094 -406.054688 C 248.820312 -413.929688 252.929688 -424.066406 257.972656 -430.242188 C 263.0625 -436.359375 270.257812 -440.8125 278.097656 -442.039062 C 286.769531 -443.363281 295.625 -440.71875 303.207031 -436.3125 C 310.800781 -431.953125 311.972656 -430.832031 318.382812 -424.855469 C 327.101562 -436.605469 342.667969 -447.625 356.957031 -450.660156 C 364.445312 -452.234375 372.226562 -452.421875 379.574219 -454.523438 C 392.105469 -458.101562 404.835938 -467.738281 410.070312 -479.691406 C 420.0625 -473.761719 432.640625 -475.332031 443.753906 -472.003906 C 450.023438 -470.136719 455.800781 -466.757812 462.210938 -465.34375 C 470.433594 -463.535156 479.101562 -465.140625 487.273438 -463.335938 C 504.660156 -459.472656 514.640625 -441.792969 531.480469 -436.0625 C 541.816406 -443.550781 553.507812 -449.183594 565.851562 -452.46875 C 569.273438 -453.402344 572.804688 -454.132812 576.277344 -453.589844 C 581.664062 -452.765625 586.164062 -449.03125 589.789062 -444.96875 C 598.847656 -434.929688 604.28125 -424.609375 605.746094 -411.144531 C 614.167969 -415.007812 623.519531 -416.09375 632.722656 -417.074219 C 641.921875 -418.054688 651.277344 -419.082031 659.742188 -422.847656 C 668.210938 -426.617188 675.949219 -434.164062 677.8125 -443.210938 C 687.121094 -434.648438 701.316406 -431.847656 713.164062 -436.207031 C 720.746094 -438.992188 727.109375 -444.332031 734.503906 -447.519531 C 748.949219 -453.734375 764.761719 -451.097656 780.28125 -448.5 C 788.996094 -462.898438 800.644531 -475.429688 814.308594 -485.21875 C 818.074219 -487.914062 822.089844 -490.402344 826.648438 -491.148438 C 832.082031 -491.976562 837.5625 -490.167969 842.464844 -487.769531 C 859.945312 -479.300781 873.40625 -462.898438 878.34375 -444.09375 L 878.296875 -446.929688 C 891.371094 -452.753906 906.546875 -453.636719 920.199219 -449.421875 C 930.289062 -446.292969 939.394531 -440.5625 949.480469 -437.421875 C 959.566406 -434.292969 971.707031 -434.386719 979.394531 -441.625 C 983.019531 -431.152344 992.46875 -422.140625 1003.085938 -418.761719 C 1018.214844 -413.964844 1035.742188 -419.351562 1049.84375 -412.101562 C 1055.230469 -424.632812 1063.015625 -436.925781 1072.664062 -446.5625 C 1075.945312 -449.847656 1079.667969 -452.976562 1084.167969 -454.097656 C 1089.597656 -455.421875 1095.234375 -453.613281 1100.417969 -451.546875 C 1113.292969 -446.410156 1118.488281 -444.542969 1129.601562 -436.230469 C 1138.507812 -445.195312 1147.859375 -454.441406 1159.90625 -458.410156 C 1170.476562 -461.882812 1182.183594 -460.855469 1192.753906 -464.28125 C 1200.238281 -466.675781 1206.996094 -471.234375 1214.683594 -472.949219 C 1219.820312 -474.070312 1225.113281 -473.882812 1230.34375 -474.367188 C 1235.589844 -474.800781 1240.976562 -476.03125 1244.976562 -479.410156 C 1251.25 -468.839844 1260.886719 -457.960938 1272.390625 -453.554688 C 1286.398438 -448.167969 1303.628906 -454.382812 1316.253906 -446.363281 C 1321.25 -443.234375 1324.722656 -438.285156 1328.785156 -434.078125 C 1332.847656 -429.875 1338.140625 -426.046875 1344.007812 -426.34375 C 1353.894531 -433.242188 1365.054688 -440.007812 1376.277344 -444.460938 C 1379.265625 -445.628906 1382.394531 -446.71875 1385.582031 -446.269531 C 1389.789062 -445.679688 1393.117188 -442.5 1395.859375 -439.21875 C 1403.546875 -430.113281 1408.980469 -419.140625 1411.625 -407.542969 C 1417.835938 -416.789062 1430.085938 -421.550781 1441.09375 -423.308594 C 1452.109375 -425.070312 1463.507812 -425.222656 1473.890625 -429.378906 C 1482.792969 -432.957031 1490.484375 -439.511719 1495.480469 -447.734375 C 1506.390625 -439.40625 1522.550781 -438.96875 1535.964844 -441.910156 C 1549.382812 -444.804688 1561.820312 -450.96875 1574.785156 -455.375 C 1603.039062 -465.023438 1639.308594 -466.582031 1668.398438 -459.683594 C 1671.527344 -430.21875 1669.175781 -400.207031 1661.5 -371.566406 C 1655.226562 -348.21875 1645.390625 -325.445312 1644.707031 -301.269531 C 1646.960938 -300.101562 1649.3125 -298.09375 1650.679688 -295.886719 C 1652.050781 -293.675781 1652.488281 -290.890625 1651.460938 -288.585938 C 1649.84375 -284.914062 1645.484375 -283.589844 1642.152344 -281.441406 C 1637.109375 -278.15625 1633.875 -271.011719 1634.074219 -264.988281 C 1631.679688 -256.519531 1631.085938 -247.664062 1629.71875 -238.945312 C 1628.347656 -230.230469 1626.199219 -221.417969 1621.097656 -214.226562 C 1616.890625 -208.355469 1617.128906 -208.640625 1611.304688 -204.339844 L 1611.789062 -204.339844 C 1623.539062 -201.601562 1637.242188 -196.3125 1643.464844 -185.988281 C 1648.308594 -177.863281 1648.308594 -167.527344 1645.378906 -158.527344 C 1642.4375 -149.515625 1636.664062 -139.878906 1630.792969 -132.4375 C 1642.6875 -125.484375 1651.554688 -113.449219 1654.683594 -100.03125 C 1656.941406 -90.289062 1656.351562 -80.011719 1659.136719 -70.363281 C 1662.953125 -57.242188 1675.199219 -48.914062 1686.597656 -40.351562 C 1679.25 -28.210938 1676.167969 -14.015625 1674.019531 -0.0078125 C 1671.871094 14 1670.5 28.242188 1666.1875 41.753906 C 1661.878906 55.265625 1653.503906 68.480469 1641.46875 76.027344 C 1655.226562 85.226562 1662.714844 102.910156 1659.824219 119.160156 C 1656.929688 135.410156 1643.761719 149.417969 1627.664062 153.28125 C 1626.777344 152.160156 1622.078125 153.375 1621.34375 154.601562 C 1620.613281 155.832031 1620.707031 157.34375 1620.800781 158.808594 C 1622.078125 173.347656 1623.398438 187.933594 1627.074219 202.035156 C 1628.394531 207.078125 1630.109375 212.167969 1633.53125 216.089844 C 1637.347656 220.445312 1642.886719 222.84375 1648.226562 225.101562 C 1640.582031 233.816406 1638.042969 246.9375 1641.375 258.050781 C 1644.269531 267.796875 1651.367188 275.828125 1654.542969 285.464844 C 1657.378906 294.027344 1657.671875 304.796875 1656.644531 313.808594 C 1654.734375 319.148438 1656.847656 325.265625 1660.367188 329.71875 C 1663.886719 334.171875 1668.691406 337.40625 1673.144531 340.972656 C 1679.757812 346.265625 1685.769531 352.335938 1690.96875 359.042969 C 1694.144531 363.152344 1697.085938 367.664062 1698.019531 372.753906 C 1699.011719 379.453125 1696.519531 386.347656 1692.9375 392.230469 Z M 1692.9375 392.230469" fill-opacity="1" fill-rule="nonzero"/><rect x="-162.888" width="1954.656" fill="#041546" y="-54.300001" height="651.600007" fill-opacity="1"/></g><g clip-path="url(#6752adddd5)"><g mask="url(#69996fe20b)"><g transform="matrix(1.578941, 0, 0, 1.578699, 85.850178, 117.526138)"/></g></g></svg>